# xmcd CD database file
#
# Track frame offsets:
#	150
#	14638
#	35191
#	52796
#	65587
#	85511
#	99575
#	118418
#	132633
#	153276
#	177852
#	201370
#	218362
#	239666
#
# Disc length: 3426 seconds
#
# Revision: 0
# Processed by: cddbd v1.5.2PL0 Copyright (c) Steve Scherf et al.
# Submitted via: CDex 1.51
#
DISCID=c80d600e
DTITLE=Trijntje Oosterhuis - The Look Of Love (Burt Bacharach Songbook)
DYEAR=2006
DGENRE=Jazz
TTITLE0=Do you know the way to San Jose
TTITLE1=The look of love
TTITLE2=A house is not a home
TTITLE3=I say a little prayer
TTITLE4=Waiting for Charlie (to come home)
TTITLE5=I'll never fall in love again
TTITLE6=Falling out of love
TTITLE7=Walk on by
TTITLE8=Alfie
TTITLE9=Anyone who had a heart
TTITLE10=This house is empty now
TTITLE11=(They long to be) close to you
TTITLE12=The windows of the world
TTITLE13=That's what friends are for
EXTD=YEAR: 2006
EXTT0=
EXTT1=
EXTT2=
EXTT3=
EXTT4=
EXTT5=
EXTT6=
EXTT7=
EXTT8=
EXTT9=
EXTT10=
EXTT11=
EXTT12=
EXTT13=
PLAYORDER=
